# xmcd
#
# Track frame offsets: 
#        150
#        16519
#        34182
#        51736
#        71229
#        87612
#        105276
#        122809
#
# Disc length: 1895 seconds
#
# Revision: 2
# Processed by: cddbd v1.5.2PL0 Copyright (c) Steve Scherf et al.
# Submitted via: ExactAudioCopyFreeDBPlugin 1.0
#
DISCID=6a076508
DTITLE=スマイル☆シューター - みっくす☆はーとっ
DYEAR=2010
DGENRE=Game
TTITLE0=羽咲ゆりな(CV:廣田詩夢)、鈴比良あいり(CV:真堂圭)、秋山麻柚(CV:原田ひとみ) - らぶりーすまいる
TTITLE1=鈴比良あいり(CV:真堂圭) - Happy Love☆
TTITLE2=秋山麻柚(CV:原田ひとみ) - 願い星
TTITLE3=羽咲ゆりな(CV:廣田詩夢) - エール
TTITLE4=羽咲ゆりな(CV:廣田詩夢)、鈴比良あいり(CV:真堂圭)、秋山麻柚(CV:原田ひとみ) - らぶりーすまいる (Instr
TTITLE4=umental)
TTITLE5=鈴比良あいり(CV:真堂圭) - Happy Love☆ (Instrumental)
TTITLE6=秋山麻柚(CV:原田ひとみ) - 願い星 (Instrumental)
TTITLE7=羽咲ゆりな(CV:廣田詩夢) - エール (Instrumental)
EXTD=YEAR: 2010
EXTT0=
EXTT1=
EXTT2=
EXTT3=
EXTT4=
EXTT5=
EXTT6=
EXTT7=
PLAYORDER=
